<?xml version="1.0"?>
<svg xmlns="http://www.w3.org/2000/svg" id="Layer_1" enable-background="new 0 0 512 512" height="512px" viewBox="0 0 512 512" width="512px"><g><g><path d="m497 40h-50c-5.523 0-10 4.477-10 10v5h-30c-3.76 0-7.032 2.078-8.74 5.146-90.625 3.552-163.26 78.374-163.26 169.854v10h-5c-5.523 0-10 4.477-10 10v40c0 5.523 4.477 10 10 10h5v37c0 9.34-3.64 18.12-10.25 24.75-6.62 6.6-15.41 10.25-24.75 10.25s-18.13-3.65-24.75-10.25c-6.61-6.63-10.25-15.41-10.25-24.75v-37h5c5.523 0 10-4.477 10-10v-40c0-5.523-4.477-10-10-10h-5v-131.349c2.986-1.73 5-4.952 5-8.651v-30h5c5.523 0 10-4.477 10-10v-50c0-5.523-4.477-10-10-10h-160c-5.523 0-10 4.477-10 10v50c0 5.523 4.477 10 10 10h5v30c0 3.699 2.014 6.922 5 8.651v131.349h-5c-5.523 0-10 4.477-10 10v40c0 5.523 4.477 10 10 10h5v37c0 23.63 4.63 46.54 13.75 68.12 4.39 10.37 9.82 20.37 16.14 29.72 6.26 9.27 13.45 17.98 21.37 25.9s16.63 15.11 25.9 21.37c9.35 6.32 19.35 11.75 29.72 16.14 21.58 9.12 44.485 13.75 68.115 13.75l.005-.05v.04.01c13 0 25.315-1.36 37.595-4.05 11.94-2.62 23.643-6.51 34.783-11.58 10.93-4.97 21.401-11.11 31.111-18.23 9.63-7.08 18.571-15.16 26.561-24.04 3.69-4.1 3.36-10.43-.739-14.12-1.84-1.66-4.21-2.57-6.69-2.57-2.83 0-5.539 1.2-7.43 3.3-29.381 32.59-71.361 51.29-115.191 51.29-41.39 0-80.31-16.13-109.6-45.4-29.27-29.29-45.4-68.21-45.4-109.6v-37h100v37c0 7.43 1.46 14.63 4.32 21.41 2.77 6.55 6.74 12.43 11.79 17.48s10.93 9.01 17.48 11.79c6.78 2.86 13.98 4.32 21.41 4.32s14.63-1.46 21.41-4.32c6.55-2.78 12.43-6.74 17.48-11.79s9.02-10.93 11.79-17.48c2.86-6.78 4.32-13.98 4.32-21.41v-37h100v37c0 9.73-.91 19.47-2.7 28.96-.5 2.63.06 5.29 1.57 7.49 1.5 2.21 3.78 3.7 6.4 4.19.62.12 1.25.18 1.87.18 4.79 0 8.92-3.43 9.81-8.15 2.02-10.7 3.05-21.69 3.05-32.67v-37h5c5.523 0 10-4.477 10-10v-40c0-5.523-4.477-10-10-10h-5v-8c0-14.891 10.223-27.438 24.019-30.992 1.825 2.421 4.716 3.992 7.981 3.992h30v5c0 5.523 4.477 10 10 10h50c5.523 0 10-4.477 10-10v-160c0-5.523-4.477-10-10-10zm-337 240h-130v-20h130zm-15-170v130h-100v-130zm-65-20v-20h30v20zm50 0v-20h20v20zm-70 0h-20v-20h20zm-35-40v-30h140v30zm345 230h-130v-20h130zm27-99.035c-23.905 4.675-42 25.782-42 51.035v8h-100v-10c0-80.024 62.997-145.614 142-149.789zm40 4.035h-20v-20h20zm0-40h-20v-30h20zm0-50h-20v-20h20zm50 105h-30v-140h30z" data-original="#000000" class="active-path" data-old_color="#000000" fill="#FFFFFF"/><path d="m105.46 401.73c-1.86-2.76-4.96-4.4-8.29-4.4-2 0-3.93.59-5.59 1.71-2.21 1.5-3.71 3.77-4.22 6.39s.04 5.28 1.53 7.5c18.07 26.74 45.1 46.08 76.12 54.45.86.23 1.74.35 2.61.35 4.51 0 8.48-3.04 9.65-7.4 1.44-5.32-1.72-10.82-7.05-12.26-26.38-7.11-49.38-23.57-64.76-46.34z" data-original="#000000" class="active-path" data-old_color="#000000" fill="#FFFFFF"/><path d="m292.779 165.811c-2.71 4.813-1.006 10.91 3.807 13.62 1.551.874 3.236 1.289 4.897 1.289 3.494 0 6.886-1.834 8.723-5.095 1.016-1.804 2.098-3.605 3.216-5.353 10.421-16.29 24.964-29.643 42.057-38.618 4.89-2.567 6.773-8.613 4.206-13.502-2.568-4.89-8.615-6.772-13.502-4.206-20.164 10.587-37.318 26.337-49.608 45.548-1.32 2.063-2.597 4.188-3.796 6.317z" data-original="#000000" class="active-path" data-old_color="#000000" fill="#FFFFFF"/><circle cx="347.845" cy="410.33" r="10" data-original="#000000" class="active-path" data-old_color="#000000" fill="#FFFFFF"/></g></g> </svg>
